<?xml version="1.0" encoding="UTF-8" standalone="no"?>
<!DOCTYPE svg PUBLIC "-//W3C//DTD SVG 1.1//EN" "http://www.w3.org/Graphics/SVG/1.1/DTD/svg11.dtd">
<svg width="100%" height="100%" viewBox="0 0 2478 4868" version="1.1" xmlns="http://www.w3.org/2000/svg" xmlns:xlink="http://www.w3.org/1999/xlink" xml:space="preserve" style="fill-rule:evenodd;clip-rule:evenodd;stroke-linejoin:round;stroke-miterlimit:1.41421;">
    <g transform="matrix(1.93378,0,0,1.93378,35.3267,-476.088)">
        <g transform="matrix(0.5,0,0,0.5,435.305,881.782)">
            <g transform="matrix(0.626071,0,0,1,-77.5784,-471.938)">
                <path d="M874.527,598.783C874.527,583.967 855.314,571.938 831.648,571.938L170.173,571.938C146.507,571.938 127.294,583.967 127.294,598.783L127.294,652.475C127.294,667.291 146.507,679.32 170.173,679.32L831.648,679.32C855.314,679.32 874.527,667.291 874.527,652.475L874.527,598.783Z"/>
            </g>
            <g transform="matrix(0.877741,0,0,1,-111.731,-271.938)">
                <path d="M874.527,598.783C874.527,583.967 860.823,571.938 843.942,571.938L157.879,571.938C140.998,571.938 127.294,583.967 127.294,598.783L127.294,652.475C127.294,667.291 140.998,679.32 157.879,679.32L843.942,679.32C860.823,679.32 874.527,667.291 874.527,652.475L874.527,598.783Z"/>
            </g>
            <g transform="matrix(1.16495,0,0,1,-147.289,-35.58)">
                <path d="M765.61,762.442C765.61,747.616 755.278,735.58 742.552,735.58L147.922,735.58C135.196,735.58 124.864,747.616 124.864,762.442L124.864,816.165C124.864,830.99 135.196,843.027 147.922,843.027L742.552,843.027C755.278,843.027 765.61,830.99 765.61,816.165L765.61,762.442Z"/>
            </g>
            <g transform="matrix(0.707317,0,0,1,-90.0369,-71.9378)">
                <path d="M874.527,598.783C874.527,583.967 857.521,571.938 836.573,571.938L165.248,571.938C144.3,571.938 127.294,583.967 127.294,598.783L127.294,652.475C127.294,667.291 144.3,679.32 165.248,679.32L836.573,679.32C857.521,679.32 874.527,667.291 874.527,652.475L874.527,598.783Z"/>
            </g>
        </g>
        <g transform="matrix(1,0,0,1,235.038,1147.36)">
            <text x="228.208px" y="244.033px" style="font-family:'AvenirNext-Bold', 'Avenir Next', sans-serif;font-weight:700;font-size:55.625px;">welcome to</text>
            <text x="93.93px" y="355.283px" style="font-family:'AvenirNext-Heavy', 'Avenir Next', sans-serif;font-weight:900;font-size:111.25px;">memoriae</text>
        </g>
    </g>
</svg>
